<?xml version="1.0" encoding="UTF-8" standalone="no"?>
<!-- Created with Inkscape (http://www.inkscape.org/) -->

<svg
   width="64"
   height="64"
   viewBox="0 0 16.933333 16.933333"
   version="1.1"
   id="svg1"
   xml:space="preserve"
   inkscape:version="1.4.2 (f4327f4, 2025-05-13)"
   sodipodi:docname="icon.svg"
   xmlns:inkscape="http://www.inkscape.org/namespaces/inkscape"
   xmlns:sodipodi="http://sodipodi.sourceforge.net/DTD/sodipodi-0.dtd"
   xmlns="http://www.w3.org/2000/svg"
   xmlns:svg="http://www.w3.org/2000/svg"><sodipodi:namedview
     id="namedview1"
     pagecolor="#ffffff"
     bordercolor="#000000"
     borderopacity="0.25"
     inkscape:showpageshadow="2"
     inkscape:pageopacity="0.0"
     inkscape:pagecheckerboard="0"
     inkscape:deskcolor="#d1d1d1"
     inkscape:document-units="mm"
     inkscape:zoom="11.01807"
     inkscape:cx="39.4806"
     inkscape:cy="27.9087"
     inkscape:window-width="1920"
     inkscape:window-height="991"
     inkscape:window-x="-9"
     inkscape:window-y="-9"
     inkscape:window-maximized="1"
     inkscape:current-layer="layer1" /><defs
     id="defs1" /><g
     inkscape:label="Layer 1"
     inkscape:groupmode="layer"
     id="layer1"><path
       style="fill:#000000;stroke-width:0.0932573"
       d="M 4.9543997,14.795333 C 3.7373158,14.623388 3.1117669,13.992244 3.1120248,12.936482 3.112103,12.616528 3.1471964,12.44465 3.2634267,12.194951 3.4266392,11.84432 3.7518003,11.495402 4.3433373,11.036141 4.9203535,10.588154 5.0553726,10.441893 5.6106632,9.6632942 6.2629894,8.7486366 6.616091,8.3722769 7.0997738,8.0760991 7.8094925,7.6415109 8.8417402,7.5951116 9.624413,7.962617 c 0.583053,0.2737731 0.953151,0.6448975 1.724271,1.7290522 0.23053,0.3241118 0.506751,0.6824338 0.613827,0.7962708 0.107073,0.113836 0.366782,0.340998 0.57713,0.504803 0.692921,0.539602 1.046822,0.944315 1.205143,1.378172 0.06032,0.16528 0.06536,0.208861 0.06497,0.561635 -2.79e-4,0.292094 -0.01091,0.419846 -0.04481,0.540731 -0.09626,0.343222 -0.295583,0.650758 -0.553124,0.853403 C 12.784498,14.662921 12.066551,14.85239 11.318272,14.8264 10.900726,14.81189 10.733271,14.75593 9.899501,14.352161 9.2046916,14.015692 9.0817946,13.965865 8.806427,13.908986 8.5685487,13.859846 8.3684917,13.859796 8.1312158,13.908808 7.8407639,13.968798 7.6389742,14.050282 7.0002742,14.365459 6.6745739,14.526181 6.3026093,14.693222 6.1736863,14.73666 5.9577695,14.80941 5.9100877,14.8162 5.5691666,14.82277 5.344652,14.82707 5.102811,14.81627 4.9544067,14.79534 Z M 3.052384,9.9358442 C 2.356711,9.7540172 1.8212648,9.2956603 1.5809307,8.6762386 1.4331676,8.2954035 1.3626622,7.7923125 1.4080331,7.4425251 1.4938341,6.7810398 1.8591655,6.3145287 2.4335926,6.1329315 3.2238969,5.8830876 3.986364,6.2488544 4.3920056,7.0724111 4.5926249,7.4797198 4.7454512,8.107649 4.7825107,8.6769094 4.8199541,9.252063 4.6188485,9.6907422 4.2350258,9.8711602 3.9319849,10.013606 3.4506315,10.039933 3.052384,9.9358442 Z m 9.888573,0.02243 c -0.770742,-0.20757 -0.965765,-0.8801979 -0.636417,-2.1949835 0.147679,-0.5895478 0.323836,-0.936635 0.633689,-1.2485769 0.4214,-0.4242409 0.991053,-0.5632123 1.564951,-0.3817823 0.847557,0.2679431 1.222821,1.1586121 0.945608,2.2443485 -0.204392,0.8005232 -0.763304,1.3547512 -1.573448,1.5602612 -0.272203,0.06905 -0.718227,0.07895 -0.934383,0.02073 z M 6.2970506,6.7512492 C 5.8968521,6.6694772 5.5830092,6.4898605 5.251899,6.1530939 4.8757555,5.7705247 4.6333671,5.3040154 4.5052252,4.7160184 4.4414097,4.4231919 4.4398507,3.6889501 4.5025607,3.4606161 4.6066515,3.0816048 4.7555947,2.8065534 4.9793061,2.5802165 5.2720372,2.2840502 5.6287629,2.1291106 6.0691683,2.1068481 7.1882634,2.0502774 7.9728945,3.050056 8.0413247,4.6197734 8.084586,5.6121304 7.7684405,6.3510581 7.1769323,6.6401195 6.8822207,6.7841408 6.6200687,6.817251 6.2970514,6.7512492 Z m 3.7520474,6.995e-4 C 9.801906,6.6957737 9.635526,6.5997521 9.4295967,6.3944189 9.0382599,6.0042143 8.8638273,5.4309454 8.8946813,4.636428 8.9442325,3.3604585 9.4664045,2.4483399 10.30662,2.1700853 c 0.147756,-0.048932 0.220865,-0.056971 0.505822,-0.05562 0.309027,0.00147 0.347432,0.007 0.531356,0.07653 0.328527,0.1242003 0.557038,0.2890819 0.742417,0.5356912 0.260331,0.3463177 0.377492,0.7001484 0.397263,1.1997576 0.02584,0.6529322 -0.109258,1.2144676 -0.418968,1.741453 -0.173953,0.29599 -0.567939,0.696252 -0.844942,0.8584019 -0.375461,0.2197841 -0.819546,0.3053973 -1.17047,0.2256497 z"
       id="path1" /></g></svg>
